<svg xmlns="http://www.w3.org/2000/svg" viewBox="0 0 64 64" width="64" height="64">
<!-- agent-local: the hero's wave field as three swells, and the lamp above them. -->
<clipPath id="tile"><rect width="64" height="64" rx="14"/></clipPath>
<g clip-path="url(#tile)">
<rect width="64" height="64" fill="#0e0e0c"/>
<path d="M0.00 39.87C0.22 39.77 0.89 39.48 1.33 39.27C1.78 39.06 2.22 38.83 2.67 38.60C3.11 38.38 3.56 38.14 4.00 37.90C4.44 37.66 4.89 37.41 5.33 37.17C5.78 36.92 6.22 36.67 6.67 36.43C7.11 36.19 7.56 35.95 8.00 35.71C8.44 35.48 8.89 35.25 9.33 35.03C9.78 34.81 10.22 34.59 10.67 34.39C11.11 34.20 11.56 34.01 12.00 33.83C12.44 33.66 12.89 33.50 13.33 33.35C13.78 33.21 14.22 33.08 14.67 32.97C15.11 32.86 15.56 32.77 16.00 32.70C16.44 32.63 16.89 32.57 17.33 32.54C17.78 32.51 18.22 32.49 18.67 32.50C19.11 32.51 19.56 32.54 20.00 32.58C20.44 32.63 20.89 32.70 21.33 32.78C21.78 32.87 22.22 32.97 22.67 33.09C23.11 33.21 23.56 33.35 24.00 33.51C24.44 33.66 24.89 33.84 25.33 34.02C25.78 34.20 26.22 34.40 26.67 34.61C27.11 34.81 27.56 35.03 28.00 35.26C28.44 35.49 28.89 35.72 29.33 35.96C29.78 36.20 30.22 36.44 30.67 36.69C31.11 36.93 31.56 37.18 32.00 37.42C32.44 37.66 32.89 37.91 33.33 38.15C33.78 38.38 34.22 38.62 34.67 38.84C35.11 39.06 35.56 39.28 36.00 39.48C36.44 39.69 36.89 39.88 37.33 40.06C37.78 40.24 38.22 40.41 38.67 40.56C39.11 40.71 39.56 40.84 40.00 40.96C40.44 41.08 40.89 41.18 41.33 41.25C41.78 41.33 42.22 41.40 42.67 41.44C43.11 41.48 43.56 41.50 44.00 41.50C44.44 41.50 44.89 41.48 45.33 41.44C45.78 41.40 46.22 41.34 46.67 41.27C47.11 41.19 47.56 41.09 48.00 40.98C48.44 40.86 48.89 40.73 49.33 40.58C49.78 40.43 50.22 40.27 50.67 40.09C51.11 39.91 51.56 39.72 52.00 39.52C52.44 39.31 52.89 39.10 53.33 38.88C53.78 38.65 54.22 38.42 54.67 38.18C55.11 37.95 55.56 37.70 56.00 37.46C56.44 37.22 56.89 36.97 57.33 36.73C57.78 36.48 58.22 36.24 58.67 36.00C59.11 35.76 59.56 35.52 60.00 35.30C60.44 35.07 60.89 34.85 61.33 34.64C61.78 34.43 62.22 34.23 62.67 34.05C63.11 33.86 63.78 33.62 64.00 33.53" stroke="#a29f92" stroke-width="3.4" fill="none" stroke-linecap="round"/><path d="M0.00 44.25C0.22 44.18 0.89 43.94 1.33 43.81C1.78 43.68 2.22 43.56 2.67 43.46C3.11 43.36 3.56 43.27 4.00 43.20C4.44 43.14 4.89 43.08 5.33 43.05C5.78 43.02 6.22 43.00 6.67 43.00C7.11 43.00 7.56 43.02 8.00 43.06C8.44 43.09 8.89 43.15 9.33 43.22C9.78 43.29 10.22 43.38 10.67 43.48C11.11 43.59 11.56 43.71 12.00 43.84C12.44 43.97 12.89 44.12 13.33 44.28C13.78 44.44 14.22 44.62 14.67 44.80C15.11 44.98 15.56 45.17 16.00 45.37C16.44 45.57 16.89 45.78 17.33 45.99C17.78 46.20 18.22 46.41 18.67 46.63C19.11 46.85 19.56 47.07 20.00 47.28C20.44 47.50 20.89 47.72 21.33 47.93C21.78 48.14 22.22 48.35 22.67 48.55C23.11 48.75 23.56 48.95 24.00 49.13C24.44 49.32 24.89 49.49 25.33 49.65C25.78 49.82 26.22 49.97 26.67 50.11C27.11 50.24 27.56 50.37 28.00 50.48C28.44 50.58 28.89 50.68 29.33 50.75C29.78 50.83 30.22 50.89 30.67 50.93C31.11 50.97 31.56 50.99 32.00 51.00C32.44 51.00 32.89 50.99 33.33 50.96C33.78 50.93 34.22 50.89 34.67 50.82C35.11 50.76 35.56 50.67 36.00 50.58C36.44 50.48 36.89 50.37 37.33 50.24C37.78 50.11 38.22 49.97 38.67 49.81C39.11 49.66 39.56 49.49 40.00 49.31C40.44 49.13 40.89 48.94 41.33 48.75C41.78 48.55 42.22 48.35 42.67 48.14C43.11 47.93 43.56 47.71 44.00 47.50C44.44 47.28 44.89 47.06 45.33 46.85C45.78 46.63 46.22 46.41 46.67 46.20C47.11 45.98 47.56 45.77 48.00 45.57C48.44 45.37 48.89 45.17 49.33 44.98C49.78 44.79 50.22 44.61 50.67 44.44C51.11 44.28 51.56 44.12 52.00 43.98C52.44 43.84 52.89 43.70 53.33 43.59C53.78 43.48 54.22 43.38 54.67 43.30C55.11 43.21 55.56 43.15 56.00 43.10C56.44 43.05 56.89 43.02 57.33 43.01C57.78 42.99 58.22 43.00 58.67 43.02C59.11 43.04 59.56 43.08 60.00 43.14C60.44 43.20 60.89 43.28 61.33 43.37C61.78 43.46 62.22 43.57 62.67 43.69C63.11 43.81 63.78 44.03 64.00 44.10" stroke="#5f5d54" stroke-width="3.2" fill="none" stroke-linecap="round"/><path d="M0.00 54.09C0.22 54.15 0.89 54.31 1.33 54.44C1.78 54.57 2.22 54.71 2.67 54.87C3.11 55.02 3.56 55.18 4.00 55.35C4.44 55.51 4.89 55.69 5.33 55.87C5.78 56.05 6.22 56.24 6.67 56.42C7.11 56.61 7.56 56.80 8.00 56.99C8.44 57.19 8.89 57.38 9.33 57.57C9.78 57.75 10.22 57.94 10.67 58.12C11.11 58.30 11.56 58.48 12.00 58.65C12.44 58.81 12.89 58.98 13.33 59.13C13.78 59.28 14.22 59.42 14.67 59.55C15.11 59.68 15.56 59.80 16.00 59.91C16.44 60.01 16.89 60.11 17.33 60.19C17.78 60.26 18.22 60.33 18.67 60.38C19.11 60.43 19.56 60.46 20.00 60.48C20.44 60.50 20.89 60.50 21.33 60.49C21.78 60.48 22.22 60.45 22.67 60.41C23.11 60.37 23.56 60.31 24.00 60.24C24.44 60.16 24.89 60.07 25.33 59.97C25.78 59.87 26.22 59.76 26.67 59.63C27.11 59.51 27.56 59.37 28.00 59.22C28.44 59.08 28.89 58.92 29.33 58.75C29.78 58.59 30.22 58.42 30.67 58.24C31.11 58.06 31.56 57.87 32.00 57.69C32.44 57.50 32.89 57.31 33.33 57.12C33.78 56.93 34.22 56.74 34.67 56.55C35.11 56.36 35.56 56.17 36.00 55.99C36.44 55.81 36.89 55.63 37.33 55.46C37.78 55.29 38.22 55.12 38.67 54.97C39.11 54.81 39.56 54.66 40.00 54.53C40.44 54.39 40.89 54.27 41.33 54.16C41.78 54.05 42.22 53.95 42.67 53.86C43.11 53.78 43.56 53.71 44.00 53.65C44.44 53.60 44.89 53.56 45.33 53.53C45.78 53.51 46.22 53.50 46.67 53.50C47.11 53.51 47.56 53.53 48.00 53.57C48.44 53.60 48.89 53.66 49.33 53.72C49.78 53.79 50.22 53.87 50.67 53.97C51.11 54.06 51.56 54.17 52.00 54.29C52.44 54.41 52.89 54.55 53.33 54.69C53.78 54.83 54.22 54.99 54.67 55.15C55.11 55.31 55.56 55.48 56.00 55.66C56.44 55.83 56.89 56.02 57.33 56.20C57.78 56.39 58.22 56.58 58.67 56.77C59.11 56.96 59.56 57.15 60.00 57.34C60.44 57.53 60.89 57.72 61.33 57.90C61.78 58.08 62.22 58.27 62.67 58.44C63.11 58.61 63.78 58.86 64.00 58.94" stroke="#34332e" stroke-width="3.0" fill="none" stroke-linecap="round"/>
<circle cx="44" cy="20" r="9" fill="#8fce9b" opacity="0.16"/><circle cx="44" cy="20" r="5" fill="#8fce9b"/>
</g>
</svg>
